<svg width="24" height="24" viewBox="0 0 24 24" fill="none" xmlns="http://www.w3.org/2000/svg">
<path d="M12 14.1942C11.7626 14.1939 11.535 14.1055 11.3671 13.9483C11.1992 13.7911 11.1048 13.5779 11.1045 13.3556C11.1045 13.2185 11.0463 13.0869 10.9428 12.99C10.8392 12.893 10.6987 12.8385 10.5523 12.8385C10.4058 12.8385 10.2653 12.893 10.1618 12.99C10.0582 13.0869 10 13.2185 10 13.3556C10.0006 13.7619 10.1421 14.1571 10.4032 14.4816C10.6643 14.8062 11.0308 15.0425 11.4477 15.1552V15.4829C11.4477 15.62 11.5059 15.7516 11.6095 15.8485C11.7131 15.9455 11.8535 16 12 16C12.1465 16 12.2869 15.9455 12.3905 15.8485C12.4941 15.7516 12.5523 15.62 12.5523 15.4829V15.1552C13.0156 15.0306 13.4153 14.7534 13.6778 14.3747C13.9402 13.996 14.0477 13.5413 13.9805 13.0943C13.9132 12.6473 13.6758 12.2381 13.3119 11.942C12.948 11.6459 12.4821 11.4828 12 11.4829C11.8229 11.4829 11.6497 11.4337 11.5024 11.3416C11.3552 11.2494 11.2404 11.1185 11.1726 10.9653C11.1048 10.812 11.0871 10.6434 11.1216 10.4807C11.1562 10.3181 11.2415 10.1687 11.3667 10.0514C11.492 9.9341 11.6515 9.85424 11.8252 9.82188C11.999 9.78953 12.179 9.80614 12.3427 9.86961C12.5063 9.93309 12.6462 10.0406 12.7446 10.1785C12.843 10.3164 12.8955 10.4785 12.8955 10.6444C12.8955 10.7815 12.9537 10.9131 13.0572 11.01C13.1608 11.107 13.3013 11.1615 13.4477 11.1615C13.5942 11.1615 13.7347 11.107 13.8382 11.01C13.9418 10.9131 14 10.7815 14 10.6444C13.9994 10.2381 13.8579 9.84291 13.5968 9.51837C13.3357 9.19384 12.9692 8.95746 12.5523 8.84481V8.51712C12.5523 8.37997 12.4941 8.24844 12.3905 8.15146C12.2869 8.05448 12.1465 8 12 8C11.8535 8 11.7131 8.05448 11.6095 8.15146C11.5059 8.24844 11.4477 8.37997 11.4477 8.51712V8.84481C10.9844 8.96943 10.5847 9.24659 10.3222 9.62528C10.0598 10.004 9.95232 10.4587 10.0195 10.9057C10.0868 11.3527 10.3242 11.7619 10.6881 12.058C11.052 12.3541 11.5179 12.5172 12 12.5171C12.2363 12.5189 12.4623 12.608 12.6287 12.765C12.7951 12.9221 12.8885 13.1344 12.8885 13.3556C12.8885 13.5769 12.7951 13.7892 12.6287 13.9463C12.4623 14.1033 12.2363 14.1924 12 14.1942Z" fill="#ABD2BF"/>
<path d="M3.43499 14.7724C3.48164 14.8424 3.54405 14.8996 3.61687 14.9393C3.6897 14.9789 3.77076 14.9997 3.8531 15C3.93543 14.9998 4.01649 14.9791 4.08931 14.9395C4.16214 14.8999 4.22456 14.8427 4.27121 14.7728L6.61375 11.2683C6.66629 11.1894 6.69699 11.0973 6.70257 11.0018C6.70814 10.9063 6.68837 10.8111 6.64539 10.7263C6.6024 10.6415 6.53782 10.5704 6.45858 10.5206C6.37935 10.4708 6.28844 10.4442 6.19564 10.4436H4.49134C4.81577 8.66293 5.74766 7.0806 7.15125 5.90128C8.55485 4.72196 10.3175 4.04619 11.9862 4.04619C14.2393 4.04619 16.6323 5.2991 18.0826 7.2373C18.1227 7.29353 18.1733 7.34094 18.2314 7.37674C18.2895 7.41253 18.354 7.43599 18.421 7.44574C18.488 7.45549 18.5563 7.45133 18.6217 7.43351C18.6872 7.41568 18.7485 7.38455 18.8021 7.34195C18.8557 7.29934 18.9006 7.24612 18.9339 7.18541C18.9673 7.1247 18.9886 7.05772 18.9965 6.98841C19.0044 6.9191 18.9988 6.84886 18.98 6.78181C18.9613 6.71477 18.9297 6.65227 18.8871 6.59799C17.2264 4.3785 14.5822 3 11.9863 3C10.0878 3 8.09157 3.76019 6.50945 5.08966C4.86724 6.46905 3.79407 8.3487 3.45943 10.4436H1.50792C1.41512 10.4441 1.3242 10.4707 1.24494 10.5205C1.16569 10.5702 1.10109 10.6413 1.0581 10.7261C1.0151 10.8109 0.995338 10.9062 1.00093 11.0017C1.00651 11.0972 1.03724 11.1893 1.08981 11.2681L3.43499 14.7724ZM5.22835 11.491L3.85285 13.5479L2.47583 11.491H5.22835Z" fill="#ABD2BF"/>
<path d="M17.3544 13.2736C17.3973 13.3585 17.4619 13.4296 17.5411 13.4795C17.6204 13.5293 17.7113 13.5559 17.8042 13.5564H19.5085C19.1841 15.3371 18.2522 16.9194 16.8485 18.0987C15.4449 19.278 13.6822 19.9538 12.0134 19.9538C9.76026 19.9538 7.36726 18.7009 5.91689 16.7627C5.87675 16.7066 5.82615 16.6593 5.76806 16.6237C5.70997 16.588 5.64555 16.5646 5.57858 16.5549C5.51162 16.5453 5.44345 16.5495 5.37808 16.5673C5.31271 16.5851 5.25145 16.6162 5.19789 16.6588C5.14433 16.7013 5.09956 16.7545 5.06618 16.8151C5.03281 16.8757 5.01151 16.9426 5.00354 17.0119C4.99557 17.0811 5.00108 17.1512 5.01976 17.2182C5.03844 17.2852 5.0699 17.3477 5.1123 17.402C6.77311 19.6215 9.41743 21 12.0133 21C13.9119 21 15.9082 20.2398 17.4901 18.9103C19.1326 17.531 20.2058 15.6513 20.5404 13.5564H22.492C22.5848 13.5559 22.6758 13.5293 22.7551 13.4795C22.8343 13.4296 22.8989 13.3585 22.9419 13.2737C22.9849 13.1889 23.0047 13.0936 22.9991 12.998C22.9935 12.9025 22.9627 12.8104 22.9101 12.7315L20.5649 9.22703C20.5182 9.15714 20.4558 9.09997 20.3829 9.06043C20.3101 9.02088 20.2291 9.00015 20.1468 9C20.0644 9.00017 19.9834 9.02094 19.9105 9.06052C19.8377 9.1001 19.7753 9.15731 19.7286 9.22724L17.386 12.7306C17.3335 12.8096 17.3027 12.9019 17.2972 12.9976C17.2916 13.0932 17.3114 13.1886 17.3544 13.2736ZM20.147 10.4521L21.5241 12.509H18.7715L20.147 10.4521Z" fill="#ABD2BF"/>
</svg>
