<svg width="24" height="24" viewBox="0 0 24 24" fill="none" xmlns="http://www.w3.org/2000/svg">
<path d="M4.67188 9.28125H9.34494C9.41953 9.28125 9.49107 9.25162 9.54381 9.19887C9.59656 9.14613 9.62619 9.07459 9.62619 9C9.62619 8.92541 9.59656 8.85387 9.54381 8.80113C9.49107 8.74838 9.41953 8.71875 9.34494 8.71875H4.67188C4.59728 8.71875 4.52575 8.74838 4.473 8.80113C4.42026 8.85387 4.39062 8.92541 4.39062 9C4.39062 9.07459 4.42026 9.14613 4.473 9.19887C4.52575 9.25162 4.59728 9.28125 4.67188 9.28125Z" fill="#ABD2BF"/>
<path d="M13.7786 11.8125H4.67188C4.59728 11.8125 4.52575 11.8421 4.473 11.8949C4.42026 11.9476 4.39062 12.0192 4.39062 12.0938C4.39062 12.1683 4.42026 12.2399 4.473 12.2926C4.52575 12.3454 4.59728 12.375 4.67188 12.375H13.7786C13.8532 12.375 13.9247 12.3454 13.9774 12.2926C14.0302 12.2399 14.0598 12.1683 14.0598 12.0938C14.0598 12.0192 14.0302 11.9476 13.9774 11.8949C13.9247 11.8421 13.8532 11.8125 13.7786 11.8125Z" fill="#ABD2BF"/>
<path d="M13.7786 14.9062H4.67188C4.59728 14.9062 4.52575 14.9359 4.473 14.9886C4.42026 15.0414 4.39062 15.1129 4.39062 15.1875C4.39062 15.2621 4.42026 15.3336 4.473 15.3864C4.52575 15.4391 4.59728 15.4688 4.67188 15.4688H13.7786C13.8532 15.4688 13.9247 15.4391 13.9774 15.3864C14.0302 15.3336 14.0598 15.2621 14.0598 15.1875C14.0598 15.1129 14.0302 15.0414 13.9774 14.9886C13.9247 14.9359 13.8532 14.9062 13.7786 14.9062Z" fill="#ABD2BF"/>
<mask id="path-4-outside-1_8095_3893" maskUnits="userSpaceOnUse" x="0" y="0" width="24" height="24" fill="black">
<rect fill="white" width="24" height="24"/>
<path d="M18.0654 1C16.9221 0.999206 15.8139 1.40169 14.9305 2.13863C14.047 2.87558 13.4432 3.90121 13.2221 5.04016H1.28316C1.13185 5.04016 1 5.14681 1 5.30038V22.2023C1.00161 22.3064 1.03258 22.4078 1.08925 22.4946C1.14591 22.5814 1.22589 22.6498 1.3197 22.6919C1.42079 22.74 1.53325 22.7582 1.64408 22.7442C1.7549 22.7303 1.85959 22.6848 1.94604 22.613L3.88433 20.9723C3.891 20.9667 3.89928 20.9633 3.90794 20.9628C3.91661 20.9623 3.92522 20.9646 3.93251 20.9694L6.25553 22.8728C6.36013 22.956 6.48939 23.0008 6.62227 23C6.75515 22.9991 6.88385 22.9527 6.98742 22.8682L9.27765 20.971C9.28423 20.9654 9.29239 20.9622 9.30093 20.9617C9.30947 20.9612 9.31793 20.9636 9.32506 20.9684L11.6217 22.8708C11.7253 22.9544 11.8537 22.9999 11.986 22.9999C12.1194 22.9997 12.2488 22.954 12.3534 22.8701L14.6698 20.9717C14.6764 20.9662 14.6846 20.963 14.6931 20.9626C14.7016 20.9621 14.7101 20.9645 14.7172 20.9693L16.6579 22.6128C16.7421 22.6845 16.8449 22.7301 16.9539 22.744C17.063 22.758 17.1737 22.7398 17.2728 22.6917C17.365 22.6489 17.4431 22.5799 17.4974 22.493C17.5517 22.4061 17.58 22.305 17.5788 22.2021V10.9968C17.7615 11.0117 17.8985 11.0195 18.0565 11.0195C20.7799 11.0195 23 8.77466 23 6.00977C22.9993 4.68129 22.4792 3.40743 21.5539 2.46807C20.6287 1.5287 19.374 1.00068 18.0654 1ZM17.0306 22.1882C17.0306 22.1924 17.0124 22.196 16.9999 22.1855L15.0604 20.5392C14.9568 20.4536 14.8275 20.4066 14.6939 20.4061C14.5604 20.4055 14.4307 20.4515 14.3264 20.5362L12.0114 22.4345C12.0049 22.44 11.9968 22.4432 11.9884 22.4437C11.9799 22.4441 11.9716 22.4418 11.9645 22.437L9.66809 20.5346C9.56363 20.4504 9.43408 20.4049 9.30074 20.4054C9.16739 20.4058 9.03817 20.4523 8.93429 20.5372L6.64429 22.4344C6.63769 22.4399 6.62952 22.4432 6.62097 22.4436C6.61243 22.4441 6.60395 22.4418 6.59679 22.4371L4.27413 20.5337C4.16885 20.4496 4.03843 20.4046 3.9045 20.4061C3.77058 20.4076 3.64118 20.4556 3.53777 20.542L1.59249 22.1855C1.57989 22.1961 1.54806 22.1925 1.54806 22.1882V5.59658H13.1446C13.1329 5.73568 13.1176 5.87052 13.1176 6.01427C13.1172 7.16261 13.5059 8.27614 14.2184 9.16801C14.9309 10.0599 15.9238 10.6758 17.0306 10.9125V22.1882ZM18.0654 10.4631C17.197 10.4631 16.3481 10.2016 15.626 9.71181C14.904 9.22197 14.3412 8.52575 14.0089 7.71118C13.6765 6.89662 13.5896 6.00029 13.759 5.13556C13.9285 4.27082 14.3466 3.47652 14.9607 2.85308C15.5748 2.22965 16.3572 1.80508 17.2089 1.63308C18.0606 1.46107 18.9435 1.54936 19.7458 1.88676C20.5481 2.22417 21.2339 2.79554 21.7163 3.52863C22.1988 4.26172 22.4563 5.12359 22.4563 6.00527C22.455 7.18717 21.992 8.32027 21.1688 9.15599C20.3457 9.99172 19.2296 10.4618 18.0654 10.4631Z"/>
</mask>
<path d="M18.0654 1C16.9221 0.999206 15.8139 1.40169 14.9305 2.13863C14.047 2.87558 13.4432 3.90121 13.2221 5.04016H1.28316C1.13185 5.04016 1 5.14681 1 5.30038V22.2023C1.00161 22.3064 1.03258 22.4078 1.08925 22.4946C1.14591 22.5814 1.22589 22.6498 1.3197 22.6919C1.42079 22.74 1.53325 22.7582 1.64408 22.7442C1.7549 22.7303 1.85959 22.6848 1.94604 22.613L3.88433 20.9723C3.891 20.9667 3.89928 20.9633 3.90794 20.9628C3.91661 20.9623 3.92522 20.9646 3.93251 20.9694L6.25553 22.8728C6.36013 22.956 6.48939 23.0008 6.62227 23C6.75515 22.9991 6.88385 22.9527 6.98742 22.8682L9.27765 20.971C9.28423 20.9654 9.29239 20.9622 9.30093 20.9617C9.30947 20.9612 9.31793 20.9636 9.32506 20.9684L11.6217 22.8708C11.7253 22.9544 11.8537 22.9999 11.986 22.9999C12.1194 22.9997 12.2488 22.954 12.3534 22.8701L14.6698 20.9717C14.6764 20.9662 14.6846 20.963 14.6931 20.9626C14.7016 20.9621 14.7101 20.9645 14.7172 20.9693L16.6579 22.6128C16.7421 22.6845 16.8449 22.7301 16.9539 22.744C17.063 22.758 17.1737 22.7398 17.2728 22.6917C17.365 22.6489 17.4431 22.5799 17.4974 22.493C17.5517 22.4061 17.58 22.305 17.5788 22.2021V10.9968C17.7615 11.0117 17.8985 11.0195 18.0565 11.0195C20.7799 11.0195 23 8.77466 23 6.00977C22.9993 4.68129 22.4792 3.40743 21.5539 2.46807C20.6287 1.5287 19.374 1.00068 18.0654 1ZM17.0306 22.1882C17.0306 22.1924 17.0124 22.196 16.9999 22.1855L15.0604 20.5392C14.9568 20.4536 14.8275 20.4066 14.6939 20.4061C14.5604 20.4055 14.4307 20.4515 14.3264 20.5362L12.0114 22.4345C12.0049 22.44 11.9968 22.4432 11.9884 22.4437C11.9799 22.4441 11.9716 22.4418 11.9645 22.437L9.66809 20.5346C9.56363 20.4504 9.43408 20.4049 9.30074 20.4054C9.16739 20.4058 9.03817 20.4523 8.93429 20.5372L6.64429 22.4344C6.63769 22.4399 6.62952 22.4432 6.62097 22.4436C6.61243 22.4441 6.60395 22.4418 6.59679 22.4371L4.27413 20.5337C4.16885 20.4496 4.03843 20.4046 3.9045 20.4061C3.77058 20.4076 3.64118 20.4556 3.53777 20.542L1.59249 22.1855C1.57989 22.1961 1.54806 22.1925 1.54806 22.1882V5.59658H13.1446C13.1329 5.73568 13.1176 5.87052 13.1176 6.01427C13.1172 7.16261 13.5059 8.27614 14.2184 9.16801C14.9309 10.0599 15.9238 10.6758 17.0306 10.9125V22.1882ZM18.0654 10.4631C17.197 10.4631 16.3481 10.2016 15.626 9.71181C14.904 9.22197 14.3412 8.52575 14.0089 7.71118C13.6765 6.89662 13.5896 6.00029 13.759 5.13556C13.9285 4.27082 14.3466 3.47652 14.9607 2.85308C15.5748 2.22965 16.3572 1.80508 17.2089 1.63308C18.0606 1.46107 18.9435 1.54936 19.7458 1.88676C20.5481 2.22417 21.2339 2.79554 21.7163 3.52863C22.1988 4.26172 22.4563 5.12359 22.4563 6.00527C22.455 7.18717 21.992 8.32027 21.1688 9.15599C20.3457 9.99172 19.2296 10.4618 18.0654 10.4631Z" fill="#ABD2BF"/>
<path d="M13.2221 5.04016V5.24016H13.3871L13.4185 5.07826L13.2221 5.04016ZM1 22.2023H0.799976L0.800024 22.2054L1 22.2023ZM1.3197 22.6919L1.40576 22.5113L1.40147 22.5093L1.3197 22.6919ZM1.94604 22.613L2.0738 22.7669L2.07525 22.7657L1.94604 22.613ZM3.88433 20.9723L3.7553 20.8195L3.75511 20.8196L3.88433 20.9723ZM3.93251 20.9694L4.05927 20.8147L4.05113 20.808L4.04234 20.8022L3.93251 20.9694ZM6.25553 22.8728L6.12876 23.0275L6.13102 23.0293L6.25553 22.8728ZM6.98742 22.8682L7.11388 23.0231L7.115 23.0222L6.98742 22.8682ZM9.27765 20.971L9.40524 21.125L9.40648 21.1239L9.27765 20.971ZM9.32506 20.9684L9.45264 20.8143L9.44492 20.8079L9.4366 20.8024L9.32506 20.9684ZM11.6217 22.8708L11.4941 23.0248L11.4961 23.0265L11.6217 22.8708ZM11.986 22.9999L11.986 23.1999H11.9864L11.986 22.9999ZM12.3534 22.8701L12.4785 23.0262L12.4802 23.0248L12.3534 22.8701ZM14.6698 20.9717L14.7966 21.1264L14.798 21.1252L14.6698 20.9717ZM14.7172 20.9693L14.8464 20.8167L14.8382 20.8098L14.8294 20.8037L14.7172 20.9693ZM16.6579 22.6128L16.7875 22.4605L16.7872 22.4602L16.6579 22.6128ZM17.2728 22.6917L17.1887 22.5102L17.1854 22.5118L17.2728 22.6917ZM17.5788 22.2021H17.3788L17.3788 22.2044L17.5788 22.2021ZM17.5788 10.9968L17.595 10.7975L17.3788 10.7799V10.9968H17.5788ZM23 6.00977H23.2V6.00966L23 6.00977ZM16.9999 22.1855L16.8705 22.338L16.8706 22.3381L16.9999 22.1855ZM15.0604 20.5392L15.1898 20.3867L15.1878 20.385L15.0604 20.5392ZM14.3264 20.5362L14.2003 20.381L14.1996 20.3815L14.3264 20.5362ZM12.0114 22.4345L11.8845 22.2798L11.882 22.2819L12.0114 22.4345ZM11.9645 22.437L11.8369 22.591L11.8442 22.5971L11.852 22.6024L11.9645 22.437ZM9.66809 20.5346L9.7957 20.3805L9.79354 20.3788L9.66809 20.5346ZM8.93429 20.5372L8.80773 20.3824L8.8067 20.3832L8.93429 20.5372ZM6.64429 22.4344L6.51669 22.2804L6.51573 22.2812L6.64429 22.4344ZM6.59679 22.4371L6.47002 22.5918L6.47778 22.5981L6.48614 22.6037L6.59679 22.4371ZM4.27413 20.5337L4.40091 20.3789L4.39891 20.3774L4.27413 20.5337ZM3.53777 20.542L3.40952 20.3885L3.4087 20.3892L3.53777 20.542ZM1.59249 22.1855L1.72102 22.3388L1.72157 22.3383L1.59249 22.1855ZM1.54806 5.59658V5.39658H1.34806V5.59658H1.54806ZM13.1446 5.59658L13.3439 5.6134L13.3622 5.39658H13.1446V5.59658ZM13.1176 6.01427L13.3176 6.01433V6.01427H13.1176ZM17.0306 10.9125H17.2306V10.7507L17.0724 10.7169L17.0306 10.9125ZM22.4563 6.00527L22.6563 6.00549V6.00527H22.4563ZM18.0656 0.800001C16.875 0.799173 15.7215 1.21829 14.8023 1.98505L15.0586 2.29221C15.9063 1.58509 16.9691 1.19924 18.0653 1.2L18.0656 0.800001ZM14.8023 1.98505C13.8832 2.75176 13.2555 3.81833 13.0258 5.00206L13.4185 5.07826C13.6308 3.98409 14.2108 2.99939 15.0586 2.29221L14.8023 1.98505ZM13.2221 4.84016H1.28316V5.24016H13.2221V4.84016ZM1.28316 4.84016C1.04529 4.84016 0.8 5.01388 0.8 5.30038H1.2C1.2 5.28457 1.20555 5.27292 1.2173 5.26253C1.23075 5.25064 1.25375 5.24016 1.28316 5.24016V4.84016ZM0.8 5.30038V22.2023H1.2V5.30038H0.8ZM0.800024 22.2054C0.802217 22.3471 0.844368 22.4854 0.921791 22.604L1.2567 22.3853C1.2208 22.3303 1.20101 22.2657 1.19998 22.1992L0.800024 22.2054ZM0.921791 22.604C0.999232 22.7225 1.10883 22.8165 1.23793 22.8744L1.40147 22.5093C1.34294 22.4831 1.29259 22.4402 1.2567 22.3853L0.921791 22.604ZM1.23366 22.8724C1.3692 22.937 1.52017 22.9614 1.66905 22.9427L1.6191 22.5458C1.54633 22.555 1.47239 22.5431 1.40573 22.5113L1.23366 22.8724ZM1.66905 22.9427C1.81792 22.9239 1.95821 22.8629 2.07379 22.7669L1.81828 22.4592C1.76096 22.5067 1.69189 22.5367 1.6191 22.5458L1.66905 22.9427ZM2.07525 22.7657L4.01354 21.1249L3.75511 20.8196L1.81682 22.4604L2.07525 22.7657ZM4.01335 21.1251C3.98734 21.1471 3.95468 21.1603 3.92005 21.1624L3.89584 20.7632C3.84388 20.7663 3.79466 20.7862 3.7553 20.8195L4.01335 21.1251ZM3.92005 21.1624C3.8854 21.1645 3.85127 21.1553 3.82268 21.1365L4.04234 20.8022C3.99917 20.7739 3.94783 20.76 3.89584 20.7632L3.92005 21.1624ZM3.80575 21.1241L6.12878 23.0275L6.38229 22.7181L4.05927 20.8147L3.80575 21.1241ZM6.13102 23.0293C6.27113 23.1408 6.44471 23.2011 6.62354 23.2L6.621 22.8C6.53407 22.8005 6.44914 22.7712 6.38004 22.7163L6.13102 23.0293ZM6.62354 23.2C6.80237 23.1989 6.97517 23.1363 7.11388 23.0231L6.86096 22.7132C6.79252 22.7691 6.70794 22.7994 6.621 22.8L6.62354 23.2ZM7.115 23.0222L9.40524 21.125L9.15006 20.8169L6.85983 22.7141L7.115 23.0222ZM9.40648 21.1239C9.3801 21.1461 9.34695 21.1595 9.31187 21.1614L9.28999 20.762C9.23783 20.7649 9.18836 20.7847 9.14882 20.818L9.40648 21.1239ZM9.31187 21.1614C9.27677 21.1633 9.24227 21.1537 9.21351 21.1344L9.4366 20.8024C9.39358 20.7734 9.34216 20.7591 9.28999 20.762L9.31187 21.1614ZM9.19747 21.1224L11.4941 23.0248L11.7493 22.7168L9.45264 20.8143L9.19747 21.1224ZM11.4961 23.0265C11.635 23.1385 11.8077 23.1999 11.986 23.1999L11.9861 22.7999C11.8997 22.7999 11.8155 22.7702 11.7473 22.7151L11.4961 23.0265ZM11.9864 23.1999C12.1654 23.1996 12.3387 23.1382 12.4785 23.0262L12.2284 22.714C12.1589 22.7697 12.0734 22.7998 11.9857 22.7999L11.9864 23.1999ZM12.4802 23.0248L14.7966 21.1264L14.543 20.8171L12.2267 22.7154L12.4802 23.0248ZM14.798 21.1252C14.7715 21.1473 14.7383 21.1605 14.7033 21.1623L14.6829 20.7628C14.6308 20.7655 14.5812 20.7851 14.5416 20.8182L14.798 21.1252ZM14.7033 21.1623C14.6682 21.1641 14.6337 21.1543 14.605 21.1349L14.8294 20.8037C14.7865 20.7747 14.7351 20.7602 14.6829 20.7628L14.7033 21.1623ZM14.5879 21.122L16.5286 22.7655L16.7872 22.4602L14.8464 20.8167L14.5879 21.122ZM16.5283 22.7652C16.6419 22.8618 16.7808 22.9235 16.9285 22.9424L16.9794 22.5457C16.909 22.5367 16.8424 22.5072 16.7875 22.4605L16.5283 22.7652ZM16.9285 22.9424C17.0763 22.9614 17.2262 22.9367 17.3602 22.8716L17.1854 22.5118C17.1212 22.543 17.0497 22.5547 16.9794 22.5457L16.9285 22.9424ZM17.3569 22.8731C17.4847 22.8139 17.5923 22.7185 17.667 22.599L17.3278 22.387C17.2939 22.4413 17.2454 22.4839 17.1887 22.5102L17.3569 22.8731ZM17.667 22.599C17.7417 22.4795 17.7804 22.3408 17.7788 22.1998L17.3788 22.2044C17.3796 22.2692 17.3617 22.3327 17.3278 22.387L17.667 22.599ZM17.7788 22.2021V10.9968H17.3788V22.2021H17.7788ZM17.5626 11.1962C17.748 11.2112 17.8909 11.2195 18.0565 11.2195V10.8195C17.9061 10.8195 17.775 10.8121 17.595 10.7975L17.5626 11.1962ZM18.0565 11.2195C20.8927 11.2195 23.2 8.88273 23.2 6.00977H22.8C22.8 8.66659 20.667 10.8195 18.0565 10.8195V11.2195ZM23.2 6.00966C23.1993 4.62915 22.6588 3.30479 21.6964 2.32772L21.4114 2.60842C22.2996 3.51007 22.7993 4.73344 22.8 6.00987L23.2 6.00966ZM21.6964 2.32772C20.7339 1.35055 19.428 0.800705 18.0655 0.800001L18.0653 1.2C19.3199 1.20065 20.5234 1.70686 21.4114 2.60842L21.6964 2.32772ZM16.8306 22.1882C16.8306 22.1122 16.8719 22.0633 16.8944 22.0426C16.9177 22.0212 16.9406 22.0105 16.9529 22.0055C16.9787 21.9951 17.0012 21.9927 17.0161 21.9924C17.0465 21.9919 17.0899 21.9997 17.1292 22.0329L16.8706 22.3381C16.9223 22.3819 16.9812 22.3932 17.0237 22.3924C17.0448 22.392 17.0726 22.3885 17.1023 22.3766C17.1165 22.3709 17.1409 22.3593 17.1653 22.3369C17.1888 22.3153 17.2306 22.2653 17.2306 22.1882H16.8306ZM17.1294 22.033L15.1898 20.3867L14.9309 20.6916L16.8705 22.338L17.1294 22.033ZM15.1878 20.385C15.0488 20.2702 14.8748 20.2068 14.6947 20.2061L14.6931 20.6061C14.7801 20.6064 14.8648 20.637 14.933 20.6933L15.1878 20.385ZM14.6947 20.2061C14.5146 20.2053 14.3402 20.2673 14.2003 20.381L14.4526 20.6914C14.5212 20.6356 14.6061 20.6057 14.6931 20.6061L14.6947 20.2061ZM14.1996 20.3815L11.8845 22.2799L12.1382 22.5892L14.4532 20.6909L14.1996 20.3815ZM11.882 22.2819C11.9087 22.2594 11.9422 22.2459 11.9777 22.244L11.999 22.6434C12.0514 22.6406 12.101 22.6207 12.1407 22.5871L11.882 22.2819ZM11.9777 22.244C12.0132 22.2421 12.048 22.2519 12.077 22.2717L11.852 22.6024C11.8951 22.6317 11.9467 22.6462 11.999 22.6434L11.9777 22.244ZM12.0921 22.283L9.79568 20.3806L9.5405 20.6886L11.8369 22.591L12.0921 22.283ZM9.79354 20.3788C9.65357 20.2661 9.47954 20.2047 9.30002 20.2054L9.30146 20.6054C9.38862 20.605 9.47368 20.6348 9.54264 20.6903L9.79354 20.3788ZM9.30002 20.2054C9.12049 20.206 8.94691 20.2686 8.80774 20.3824L9.06085 20.6921C9.12943 20.636 9.21429 20.6057 9.30146 20.6054L9.30002 20.2054ZM8.8067 20.3832L6.5167 22.2804L6.77188 22.5884L9.06188 20.6912L8.8067 20.3832ZM6.51573 22.2812C6.54194 22.2592 6.57484 22.2459 6.60967 22.244L6.63228 22.6433C6.6842 22.6404 6.73344 22.6207 6.77285 22.5876L6.51573 22.2812ZM6.60967 22.244C6.6445 22.242 6.67877 22.2514 6.70744 22.2705L6.48614 22.6037C6.52913 22.6322 6.58036 22.6463 6.63228 22.6433L6.60967 22.244ZM6.72356 22.2824L4.4009 20.379L4.14736 20.6883L6.47002 22.5918L6.72356 22.2824ZM4.39891 20.3774C4.25781 20.2647 4.08258 20.2041 3.90224 20.2061L3.90677 20.6061C3.99428 20.6051 4.07988 20.6345 4.14935 20.69L4.39891 20.3774ZM3.90224 20.2061C3.7219 20.2082 3.54807 20.2727 3.40952 20.3885L3.66602 20.6955C3.73429 20.6384 3.81925 20.6071 3.90677 20.6061L3.90224 20.2061ZM3.4087 20.3892L1.46342 22.0327L1.72157 22.3383L3.66685 20.6948L3.4087 20.3892ZM1.46397 22.0323C1.49457 22.0066 1.52441 21.9986 1.53592 21.996C1.54982 21.9928 1.56085 21.9924 1.56798 21.9924C1.57448 21.9925 1.58568 21.9931 1.6005 21.9967C1.60639 21.9982 1.62405 22.0027 1.64496 22.014C1.65516 22.0196 1.6757 22.0318 1.69599 22.054C1.71676 22.0767 1.74806 22.1224 1.74806 22.1882H1.34806C1.34806 22.2545 1.3796 22.3008 1.40084 22.324C1.4216 22.3467 1.44284 22.3594 1.45393 22.3655C1.47664 22.3778 1.49688 22.3832 1.50596 22.3854C1.52714 22.3906 1.54708 22.3922 1.56311 22.3924C1.57978 22.3926 1.60113 22.3914 1.62455 22.386C1.64557 22.3813 1.68411 22.3697 1.72101 22.3388L1.46397 22.0323ZM1.74806 22.1882V5.59658H1.34806V22.1882H1.74806ZM1.54806 5.79658H13.1446V5.39658H1.54806V5.79658ZM12.9453 5.57976C12.9342 5.71151 12.9176 5.85947 12.9176 6.01427H13.3176C13.3176 5.88157 13.3316 5.75986 13.3439 5.6134L12.9453 5.57976ZM12.9176 6.0142C12.9172 7.20764 13.3211 8.36528 14.0621 9.29284L14.3746 9.04318C13.6906 8.187 13.3172 7.11758 13.3176 6.01433L12.9176 6.0142ZM14.0621 9.29284C14.8032 10.2205 15.8364 10.8616 16.9888 11.108L17.0724 10.7169C16.0112 10.49 15.0586 9.89929 14.3746 9.04318L14.0621 9.29284ZM16.8306 10.9125V22.1882H17.2306V10.9125H16.8306ZM18.0654 10.2631C17.2373 10.2631 16.4274 10.0138 15.7383 9.5463L15.5138 9.87732C16.2688 10.3895 17.1568 10.6631 18.0654 10.6631L18.0654 10.2631ZM15.7383 9.5463C15.0492 9.0788 14.5116 8.414 14.1941 7.63563L13.8237 7.78673C14.1708 8.63749 14.7588 9.36514 15.5138 9.87732L15.7383 9.5463ZM14.1941 7.63563C13.8765 6.85723 13.7934 6.00054 13.9553 5.17401L13.5628 5.0971C13.3858 6.00004 13.4766 6.93599 13.8237 7.78673L14.1941 7.63563ZM13.9553 5.17401C14.1172 4.3475 14.5169 3.5887 15.1032 2.99343L14.8182 2.71273C14.1764 3.36433 13.7397 4.19415 13.5628 5.0971L13.9553 5.17401ZM15.1032 2.99343C15.6895 2.39818 16.4361 1.99317 17.2485 1.82912L17.1693 1.43704C16.2782 1.61699 15.4601 2.06111 14.8182 2.71273L15.1032 2.99343ZM17.2485 1.82912C18.0608 1.66507 18.9029 1.74924 19.6683 2.07112L19.8233 1.7024C18.9841 1.34947 18.0604 1.25708 17.1693 1.43704L17.2485 1.82912ZM19.6683 2.07112C20.4337 2.39302 21.0884 2.93833 21.5493 3.63858L21.8834 3.41868C21.3793 2.65275 20.6625 2.05532 19.8233 1.7024L19.6683 2.07112ZM21.5493 3.63858C22.0102 4.33886 22.2563 5.16248 22.2563 6.00527H22.6563C22.6563 5.08471 22.3875 4.18457 21.8834 3.41868L21.5493 3.63858ZM22.2563 6.00505C22.2551 7.13494 21.8124 8.2176 21.0263 9.01565L21.3113 9.29634C22.1716 8.42294 22.655 7.23939 22.6563 6.00549L22.2563 6.00505ZM21.0263 9.01565C20.2404 9.81359 19.1754 10.2619 18.0652 10.2631L18.0657 10.6631C19.2838 10.6617 20.4509 10.1698 21.3113 9.29634L21.0263 9.01565Z" fill="#ABD2BF" mask="url(#path-4-outside-1_8095_3893)"/>
<path d="M17.9004 4.03233C18.1511 4.03258 18.3913 4.1206 18.5686 4.2771C18.7458 4.4336 18.8455 4.64578 18.8457 4.8671C18.8457 4.93205 18.875 4.99434 18.927 5.04027C18.979 5.0862 19.0495 5.112 19.1231 5.112C19.1966 5.112 19.2672 5.0862 19.3192 5.04027C19.3712 4.99434 19.4004 4.93205 19.4004 4.8671C19.4 4.56084 19.2795 4.26415 19.0596 4.02737C18.8396 3.7906 18.5336 3.62834 18.1936 3.56812V3.2449C18.1936 3.17995 18.1644 3.11766 18.1123 3.07173C18.0603 3.0258 17.9898 3 17.9163 3C17.8427 3 17.7722 3.0258 17.7202 3.07173C17.6681 3.11766 17.6389 3.17995 17.6389 3.2449V3.56327C17.2696 3.62096 16.9381 3.79878 16.7099 4.06166C16.4817 4.32453 16.3733 4.65338 16.4061 4.98334C16.439 5.3133 16.6106 5.62042 16.8872 5.84413C17.1639 6.06784 17.5254 6.1919 17.9004 6.19184C18.0874 6.19183 18.2702 6.24078 18.4256 6.3325C18.5811 6.42423 18.7023 6.5546 18.7738 6.70714C18.8454 6.85968 18.8641 7.02752 18.8276 7.18946C18.7912 7.35139 18.7011 7.50014 18.5689 7.61689C18.4367 7.73364 18.2683 7.81314 18.0849 7.84535C17.9015 7.87756 17.7115 7.86102 17.5387 7.79784C17.366 7.73465 17.2183 7.62765 17.1145 7.49036C17.0106 7.35308 16.9552 7.19168 16.9552 7.02657C16.9552 6.96162 16.926 6.89933 16.874 6.8534C16.822 6.80747 16.7514 6.78167 16.6779 6.78167C16.6043 6.78167 16.5338 6.80747 16.4818 6.8534C16.4298 6.89933 16.4005 6.96162 16.4005 7.02657C16.401 7.3089 16.5034 7.58374 16.6928 7.81114C16.8823 8.03855 17.149 8.20667 17.454 8.29106V8.7551C17.454 8.82005 17.4833 8.88234 17.5353 8.92827C17.5873 8.9742 17.6578 9 17.7314 9C17.8049 9 17.8755 8.9742 17.9275 8.92827C17.9795 8.88234 18.0087 8.82005 18.0087 8.7551V8.34694C18.396 8.32213 18.7573 8.16562 19.0166 7.91034C19.2759 7.65506 19.413 7.32092 19.3989 6.97821C19.3849 6.63551 19.2209 6.31097 18.9414 6.07288C18.6619 5.8348 18.2888 5.70173 17.9004 5.70167C17.652 5.69861 17.415 5.60931 17.2406 5.45311C17.0662 5.29691 16.9684 5.08635 16.9684 4.86698C16.9684 4.64761 17.0662 4.43705 17.2406 4.28085C17.415 4.12464 17.652 4.03535 17.9004 4.03229V4.03233Z" fill="#ABD2BF"/>
</svg>
